<mxfile host="65bd71144e">
    <diagram id="KtbQE8Ao82rVx8-YFAqs" name="Page-1">
        <mxGraphModel dx="1682" dy="475" grid="1" gridSize="10" guides="1" tooltips="1" connect="1" arrows="1" fold="1" page="1" pageScale="1" pageWidth="850" pageHeight="1100" math="0" shadow="0">
            <root>
                <mxCell id="0"/>
                <mxCell id="1" parent="0"/>
                <mxCell id="2" value="CanTrv" style="rounded=1;whiteSpace=wrap;html=1;fillColor=#ffe6cc;strokeColor=#d79b00;" vertex="1" parent="1">
                    <mxGeometry x="100" y="180" width="120" height="60" as="geometry"/>
                </mxCell>
                <mxCell id="3" value="CanIf" style="rounded=1;whiteSpace=wrap;html=1;fillColor=#fff2cc;strokeColor=#d6b656;" vertex="1" parent="1">
                    <mxGeometry x="280" y="180" width="120" height="60" as="geometry"/>
                </mxCell>
                <mxCell id="4" value="RTE" style="rounded=1;whiteSpace=wrap;html=1;fillColor=#f8cecc;strokeColor=#b85450;" vertex="1" parent="1">
                    <mxGeometry x="460" y="180" width="120" height="60" as="geometry"/>
                </mxCell>
                <mxCell id="5" value="ASW" style="rounded=1;whiteSpace=wrap;html=1;fillColor=#d5e8d4;strokeColor=#82b366;" vertex="1" parent="1">
                    <mxGeometry x="630" y="180" width="120" height="60" as="geometry"/>
                </mxCell>
                <mxCell id="6" value="" style="endArrow=none;html=1;entryX=0.5;entryY=1;entryDx=0;entryDy=0;" edge="1" parent="1" target="2">
                    <mxGeometry width="50" height="50" relative="1" as="geometry">
                        <mxPoint x="160" y="440" as="sourcePoint"/>
                        <mxPoint x="480" y="210" as="targetPoint"/>
                    </mxGeometry>
                </mxCell>
                <mxCell id="7" value="" style="endArrow=classic;startArrow=classic;html=1;" edge="1" parent="1">
                    <mxGeometry width="50" height="50" relative="1" as="geometry">
                        <mxPoint x="30" y="280" as="sourcePoint"/>
                        <mxPoint x="160" y="280" as="targetPoint"/>
                    </mxGeometry>
                </mxCell>
                <mxCell id="8" value="" style="endArrow=classic;startArrow=classic;html=1;" edge="1" parent="1">
                    <mxGeometry width="50" height="50" relative="1" as="geometry">
                        <mxPoint x="10" y="320" as="sourcePoint"/>
                        <mxPoint x="160" y="320" as="targetPoint"/>
                    </mxGeometry>
                </mxCell>
                <mxCell id="9" value="" style="endArrow=none;html=1;" edge="1" parent="1">
                    <mxGeometry width="50" height="50" relative="1" as="geometry">
                        <mxPoint x="30" y="440" as="sourcePoint"/>
                        <mxPoint x="30" y="110" as="targetPoint"/>
                    </mxGeometry>
                </mxCell>
                <mxCell id="10" value="" style="endArrow=none;html=1;" edge="1" parent="1">
                    <mxGeometry width="50" height="50" relative="1" as="geometry">
                        <mxPoint x="10" y="440" as="sourcePoint"/>
                        <mxPoint x="10" y="110" as="targetPoint"/>
                    </mxGeometry>
                </mxCell>
                <mxCell id="11" value="H" style="text;html=1;strokeColor=none;fillColor=none;align=center;verticalAlign=middle;whiteSpace=wrap;rounded=0;" vertex="1" parent="1">
                    <mxGeometry x="10" y="130" width="60" height="30" as="geometry"/>
                </mxCell>
                <mxCell id="12" value="L" style="text;html=1;strokeColor=none;fillColor=none;align=center;verticalAlign=middle;whiteSpace=wrap;rounded=0;" vertex="1" parent="1">
                    <mxGeometry x="-30" y="130" width="60" height="30" as="geometry"/>
                </mxCell>
                <mxCell id="15" value="&lt;div style=&quot;color: rgb(59, 59, 59); background-color: rgb(255, 255, 255); font-weight: normal; line-height: 23px;&quot;&gt;&lt;div style=&quot;&quot;&gt;&lt;span style=&quot;color: rgb(121, 94, 38);&quot;&gt;&lt;font style=&quot;font-size: 10px;&quot;&gt;CAN_Transmit&lt;/font&gt;&lt;/span&gt;&lt;/div&gt;&lt;/div&gt;" style="text;whiteSpace=wrap;html=1;" vertex="1" parent="1">
                    <mxGeometry x="50" y="250" width="150" height="50" as="geometry"/>
                </mxCell>
                <mxCell id="16" value="" style="endArrow=none;html=1;entryX=0.5;entryY=1;entryDx=0;entryDy=0;" edge="1" parent="1">
                    <mxGeometry width="50" height="50" relative="1" as="geometry">
                        <mxPoint x="339.58000000000004" y="440" as="sourcePoint"/>
                        <mxPoint x="339.58000000000004" y="240" as="targetPoint"/>
                    </mxGeometry>
                </mxCell>
                <mxCell id="17" value="&lt;div style=&quot;color: rgb(59, 59, 59); background-color: rgb(255, 255, 255); font-weight: normal; line-height: 23px;&quot;&gt;&lt;div style=&quot;&quot;&gt;&lt;span style=&quot;color: rgb(121, 94, 38);&quot;&gt;&lt;font style=&quot;font-size: 10px;&quot;&gt;CAN_Receive&lt;/font&gt;&lt;/span&gt;&lt;/div&gt;&lt;/div&gt;" style="text;whiteSpace=wrap;html=1;fontSize=10;fontFamily=Helvetica;" vertex="1" parent="1">
                    <mxGeometry x="50" y="290" width="140" height="50" as="geometry"/>
                </mxCell>
                <mxCell id="18" value="" style="endArrow=classic;startArrow=classic;html=1;fontFamily=Helvetica;fontSize=10;exitX=0.75;exitY=1;exitDx=0;exitDy=0;" edge="1" parent="1">
                    <mxGeometry width="50" height="50" relative="1" as="geometry">
                        <mxPoint x="161.49999999999977" y="300" as="sourcePoint"/>
                        <mxPoint x="339" y="300" as="targetPoint"/>
                    </mxGeometry>
                </mxCell>
                <mxCell id="19" value="" style="endArrow=classic;startArrow=classic;html=1;fontFamily=Helvetica;fontSize=10;exitX=0.75;exitY=1;exitDx=0;exitDy=0;" edge="1" parent="1">
                    <mxGeometry width="50" height="50" relative="1" as="geometry">
                        <mxPoint x="160.99999999999977" y="340" as="sourcePoint"/>
                        <mxPoint x="338.5" y="340" as="targetPoint"/>
                    </mxGeometry>
                </mxCell>
                <mxCell id="20" value="&lt;div style=&quot;color: rgb(59, 59, 59); background-color: rgb(255, 255, 255); font-weight: normal; line-height: 23px;&quot;&gt;&lt;div style=&quot;&quot;&gt;&lt;span style=&quot;color: rgb(121, 94, 38);&quot;&gt;&lt;font style=&quot;font-size: 10px;&quot;&gt;CanIf_Transmit&lt;/font&gt;&lt;/span&gt;&lt;/div&gt;&lt;/div&gt;" style="text;whiteSpace=wrap;html=1;fontSize=10;fontFamily=Helvetica;" vertex="1" parent="1">
                    <mxGeometry x="210" y="270" width="160" height="50" as="geometry"/>
                </mxCell>
                <mxCell id="22" value="&lt;div style=&quot;color: rgb(59, 59, 59); background-color: rgb(255, 255, 255); font-weight: normal; line-height: 23px;&quot;&gt;&lt;div style=&quot;&quot;&gt;&lt;div style=&quot;line-height: 23px;&quot;&gt;&lt;span style=&quot;color: rgb(121, 94, 38);&quot;&gt;&lt;font style=&quot;font-size: 10px;&quot;&gt;CanIf_Receive&lt;/font&gt;&lt;/span&gt;&lt;/div&gt;&lt;/div&gt;&lt;/div&gt;" style="text;whiteSpace=wrap;html=1;fontSize=10;fontFamily=Helvetica;" vertex="1" parent="1">
                    <mxGeometry x="210" y="310" width="160" height="50" as="geometry"/>
                </mxCell>
                <mxCell id="24" value="" style="endArrow=classic;html=1;fontFamily=Helvetica;fontSize=10;" edge="1" parent="1">
                    <mxGeometry width="50" height="50" relative="1" as="geometry">
                        <mxPoint x="160" y="380" as="sourcePoint"/>
                        <mxPoint x="340" y="380" as="targetPoint"/>
                    </mxGeometry>
                </mxCell>
                <mxCell id="25" value="" style="endArrow=none;html=1;entryX=0.5;entryY=1;entryDx=0;entryDy=0;" edge="1" parent="1">
                    <mxGeometry width="50" height="50" relative="1" as="geometry">
                        <mxPoint x="519.5799999999999" y="440" as="sourcePoint"/>
                        <mxPoint x="519.5799999999999" y="240" as="targetPoint"/>
                    </mxGeometry>
                </mxCell>
                <mxCell id="26" value="&lt;div style=&quot;color: rgb(59, 59, 59); background-color: rgb(255, 255, 255); font-weight: normal; line-height: 23px;&quot;&gt;&lt;div style=&quot;&quot;&gt;&lt;span style=&quot;color: rgb(121, 94, 38);&quot;&gt;&lt;font style=&quot;font-size: 10px;&quot;&gt;CanIf_GetReceivedData&lt;/font&gt;&lt;/span&gt;&lt;/div&gt;&lt;/div&gt;" style="text;whiteSpace=wrap;html=1;fontSize=10;fontFamily=Helvetica;" vertex="1" parent="1">
                    <mxGeometry x="210" y="350" width="230" height="50" as="geometry"/>
                </mxCell>
                <mxCell id="29" value="" style="endArrow=classic;startArrow=classic;html=1;fontFamily=Helvetica;fontSize=10;exitX=0.75;exitY=1;exitDx=0;exitDy=0;" edge="1" parent="1">
                    <mxGeometry width="50" height="50" relative="1" as="geometry">
                        <mxPoint x="339.9999999999998" y="320" as="sourcePoint"/>
                        <mxPoint x="517.5" y="320" as="targetPoint"/>
                    </mxGeometry>
                </mxCell>
                <mxCell id="30" value="&lt;div style=&quot;color: rgb(59, 59, 59); background-color: rgb(255, 255, 255); font-weight: normal; line-height: 23px;&quot;&gt;&lt;div style=&quot;&quot;&gt;&lt;span style=&quot;color: rgb(121, 94, 38);&quot;&gt;&lt;font style=&quot;font-size: 10px;&quot;&gt;RTE_Transmit&lt;/font&gt;&lt;/span&gt;&lt;/div&gt;&lt;/div&gt;" style="text;whiteSpace=wrap;html=1;fontSize=10;fontFamily=Helvetica;" vertex="1" parent="1">
                    <mxGeometry x="388.5" y="290" width="160" height="50" as="geometry"/>
                </mxCell>
                <mxCell id="32" value="" style="endArrow=classic;startArrow=classic;html=1;fontFamily=Helvetica;fontSize=10;exitX=0.75;exitY=1;exitDx=0;exitDy=0;" edge="1" parent="1">
                    <mxGeometry width="50" height="50" relative="1" as="geometry">
                        <mxPoint x="339.9999999999998" y="360" as="sourcePoint"/>
                        <mxPoint x="517.5" y="360" as="targetPoint"/>
                    </mxGeometry>
                </mxCell>
                <mxCell id="33" value="&lt;div style=&quot;color: rgb(59, 59, 59); background-color: rgb(255, 255, 255); font-weight: normal; line-height: 23px;&quot;&gt;&lt;div style=&quot;&quot;&gt;&lt;span style=&quot;color: rgb(121, 94, 38);&quot;&gt;&lt;font style=&quot;font-size: 10px;&quot;&gt;RTE_&lt;/font&gt;&lt;/span&gt;&lt;span style=&quot;color: rgb(121, 94, 38);&quot;&gt;Receive&lt;/span&gt;&lt;/div&gt;&lt;/div&gt;" style="text;whiteSpace=wrap;html=1;fontSize=10;fontFamily=Helvetica;" vertex="1" parent="1">
                    <mxGeometry x="388.5" y="330" width="160" height="50" as="geometry"/>
                </mxCell>
                <mxCell id="35" value="" style="endArrow=none;html=1;entryX=0.5;entryY=1;entryDx=0;entryDy=0;" edge="1" parent="1">
                    <mxGeometry width="50" height="50" relative="1" as="geometry">
                        <mxPoint x="689.5800000000002" y="440" as="sourcePoint"/>
                        <mxPoint x="689.5800000000002" y="240" as="targetPoint"/>
                    </mxGeometry>
                </mxCell>
                <mxCell id="36" value="" style="endArrow=classic;startArrow=classic;html=1;fontFamily=Helvetica;fontSize=10;exitX=0.822;exitY=0.2;exitDx=0;exitDy=0;exitPerimeter=0;" edge="1" parent="1" source="33">
                    <mxGeometry width="50" height="50" relative="1" as="geometry">
                        <mxPoint x="570" y="350" as="sourcePoint"/>
                        <mxPoint x="690" y="340" as="targetPoint"/>
                    </mxGeometry>
                </mxCell>
                <mxCell id="37" value="" style="endArrow=classic;startArrow=classic;html=1;fontFamily=Helvetica;fontSize=10;exitX=0.822;exitY=0.2;exitDx=0;exitDy=0;exitPerimeter=0;" edge="1" parent="1">
                    <mxGeometry width="50" height="50" relative="1" as="geometry">
                        <mxPoint x="520" y="374.66" as="sourcePoint"/>
                        <mxPoint x="689.98" y="374.66" as="targetPoint"/>
                    </mxGeometry>
                </mxCell>
                <mxCell id="39" value="&lt;div style=&quot;color: rgb(59, 59, 59); background-color: rgb(255, 255, 255); font-weight: normal; line-height: 23px;&quot;&gt;&lt;div style=&quot;&quot;&gt;&lt;div style=&quot;line-height: 23px;&quot;&gt;&lt;span style=&quot;color: rgb(121, 94, 38);&quot;&gt;&lt;font style=&quot;font-size: 10px;&quot;&gt;Swc_MainFunction&lt;/font&gt;&lt;/span&gt;&lt;/div&gt;&lt;/div&gt;&lt;/div&gt;" style="text;whiteSpace=wrap;html=1;fontSize=10;fontFamily=Helvetica;" vertex="1" parent="1">
                    <mxGeometry x="560" y="310" width="160" height="50" as="geometry"/>
                </mxCell>
                <mxCell id="40" value="&lt;div style=&quot;color: rgb(59, 59, 59); background-color: rgb(255, 255, 255); font-weight: normal; line-height: 23px;&quot;&gt;&lt;div style=&quot;&quot;&gt;&lt;div style=&quot;line-height: 23px;&quot;&gt;&lt;div style=&quot;line-height: 23px;&quot;&gt;&lt;span style=&quot;color: rgb(121, 94, 38);&quot;&gt;&lt;font style=&quot;font-size: 10px;&quot;&gt;Swc_HandleReceivedData&lt;/font&gt;&lt;/span&gt;&lt;/div&gt;&lt;/div&gt;&lt;/div&gt;&lt;/div&gt;" style="text;whiteSpace=wrap;html=1;fontSize=10;fontFamily=Helvetica;" vertex="1" parent="1">
                    <mxGeometry x="560" y="370" width="160" height="50" as="geometry"/>
                </mxCell>
                <mxCell id="41" value="" style="endArrow=classic;html=1;fontFamily=Helvetica;fontSize=10;" edge="1" parent="1">
                    <mxGeometry width="50" height="50" relative="1" as="geometry">
                        <mxPoint x="606" y="340" as="sourcePoint"/>
                        <mxPoint x="606" y="370" as="targetPoint"/>
                    </mxGeometry>
                </mxCell>
            </root>
        </mxGraphModel>
    </diagram>
</mxfile>